<svg xmlns:inkscape="http://www.inkscape.org/namespaces/inkscape" xmlns:sodipodi="http://sodipodi.sourceforge.net/DTD/sodipodi-0.dtd" xmlns="http://www.w3.org/2000/svg" xmlns:svg="http://www.w3.org/2000/svg" width="103.48859mm" height="41.995159mm" viewBox="0 0 103.48859 41.995159" version="1.1" id="svg1081" inkscape:version="1.1.1 (3bf5ae0d25, 2021-09-20)" sodipodi:docname="MHTC.svg">
  <sodipodi:namedview id="namedview1083" pagecolor="#ffffff" bordercolor="#666666" borderopacity="1.0" inkscape:pageshadow="2" inkscape:pageopacity="0.0" inkscape:pagecheckerboard="0" inkscape:document-units="mm" showgrid="false" inkscape:zoom="0.64052329" inkscape:cx="144.41317" inkscape:cy="416.06606" inkscape:window-width="1920" inkscape:window-height="1017" inkscape:window-x="1912" inkscape:window-y="-8" inkscape:window-maximized="1" inkscape:current-layer="layer1" fit-margin-top="0" fit-margin-left="0" fit-margin-right="0" fit-margin-bottom="0"/>
  <defs id="defs1078"/>
  <g inkscape:label="Layer 1" inkscape:groupmode="layer" id="layer1" transform="translate(-52.763355,-5.2326008)">
    <path d="M 132.74831,33.353221 V 5.2326008 H 52.763355 v 28.1206202 13.8744 h 79.984955 z" fill="#231f20" id="path4" style="stroke-width:0.352778"/>
    <text fill="#ffffff" xml:space="preserve" transform="scale(0.98461732,1.015623)" font-size="6.04389px" font-family="Verdana" id="text8" x="43.436085" y="125.91442" style="stroke-width:0.352778"><tspan y="43.331158" x="57.501053 59.882355 62.355522 65.987915 69.813705 72.962585 76.727943 80.396599 82.977348 85.358643 87.486099 91.251457 94.88385 97.265144 100.89754 103.02197 106.17085 109.83951 111.49554 113.15157 116.75374 119.90262 122.28393 123.93994 127.6086" id="tspan6" style="stroke-width:0.352778">transport data collection</tspan></text>
    <text fill="#ffffff" xml:space="preserve" transform="scale(0.94282529,1.0606419)" font-size="27.7062px" font-family="Verdana" id="text12" x="45.361454" y="120.57" style="stroke-width:0.352778"><tspan y="29.336355" x="57.528404 80.88475 101.69213 118.22444" id="tspan10" style="stroke-width:0.352778">MHTC</tspan></text>
    <path d="M 156.25195,34.726381 H 135.26167 V 5.2327308 h 20.99028 z" fill="#0f9a49" id="path14" style="stroke-width:0.352778"/>
    <path d="m 156.25195,47.227761 h -20.99028 v -9.99913 h 20.99028 z" fill="#4972a2" id="path16" style="stroke-width:0.352778"/>
  </g>
</svg>
